<?xml version="1.0" standalone="no"?>
<!DOCTYPE svg PUBLIC "-//W3C//DTD SVG 20010904//EN"
 "http://www.w3.org/TR/2001/REC-SVG-20010904/DTD/svg10.dtd">
<svg version="1.0" xmlns="http://www.w3.org/2000/svg"
 width="128.000000pt" height="128.000000pt" viewBox="0 0 128.000000 128.000000"
 preserveAspectRatio="xMidYMid meet">

<g transform="translate(0.000000,128.000000) scale(0.100000,-0.100000)"
fill="#000000" stroke="none">
<path d="M485 1227 c-64 -36 -85 -77 -85 -165 0 -59 -3 -73 -12 -64 -18 18
-68 -33 -68 -70 0 -30 53 -182 71 -204 7 -9 10 -66 8 -176 l-4 -163 47 -3 c26
-2 71 1 100 7 29 5 54 8 55 7 5 -4 -66 -147 -107 -214 -22 -37 -63 -93 -91
-125 -48 -54 -49 -57 -25 -57 19 0 37 15 74 61 51 63 153 241 176 306 l13 37
83 13 c46 7 87 10 91 6 4 -5 20 -33 37 -63 16 -30 57 -98 90 -151 33 -52 73
-121 88 -152 19 -38 34 -57 46 -57 16 0 14 8 -16 68 -19 37 -60 107 -91 157
-55 86 -115 191 -115 200 0 2 30 5 68 7 l67 3 2 50 c6 121 13 155 34 155 10 0
19 4 19 10 0 5 14 25 30 44 42 47 60 96 60 159 0 72 -26 107 -79 107 -37 0
-39 2 -45 38 -9 55 -9 56 29 103 42 54 45 90 9 118 -33 26 -59 26 -109 1 -34
-17 -59 -20 -183 -20 -142 0 -144 0 -164 25 -24 31 -51 31 -103 2z m85 -32
l10 -25 167 0 c148 0 171 2 209 21 34 16 47 18 63 9 28 -14 26 -29 -7 -70 -57
-69 -67 -118 -35 -167 21 -31 22 -117 4 -238 -6 -44 -14 -122 -18 -173 l-6
-93 -81 2 c-45 0 -154 -11 -244 -25 -90 -14 -172 -26 -183 -26 -18 0 -19 9
-19 130 0 109 2 130 15 130 8 0 15 7 15 15 0 11 7 14 25 9 14 -3 25 -2 25 3 0
16 -24 33 -47 33 -21 0 -23 4 -23 51 0 49 15 79 39 79 6 0 11 -9 11 -19 0 -30
47 -61 92 -61 21 0 57 9 79 21 37 19 42 19 58 5 10 -9 35 -16 60 -16 34 0 49
6 72 29 25 26 29 37 29 85 0 47 -4 60 -30 89 -22 26 -26 37 -18 45 9 9 9 15 0
24 -9 9 -16 8 -30 -5 -21 -19 -63 -22 -79 -6 -17 17 -35 1 -23 -21 5 -10 10
-20 10 -22 0 -2 -33 -2 -73 0 -71 4 -74 3 -105 -28 -18 -17 -35 -42 -38 -55
-6 -25 -36 -41 -54 -30 -5 3 -10 33 -10 65 0 49 3 58 15 54 9 -4 15 0 15 9 0
8 9 26 20 40 19 25 21 25 73 13 29 -7 67 -21 85 -31 34 -21 53 -15 32 10 -20
25 -59 41 -125 55 l-59 12 -28 -31 -28 -31 0 27 c0 41 34 89 77 112 49 26 52
26 63 -4z m258 -217 c20 -20 14 -26 -38 -37 -79 -17 -93 -15 -80 10 19 35 93
52 118 27z m-148 -2 c0 -3 -4 -16 -9 -30 -8 -20 -19 -26 -58 -31 -26 -3 -59
-8 -72 -11 l-24 -5 18 28 c28 43 46 52 98 53 26 0 47 -2 47 -4z m-272 -159
l-3 -62 -30 87 c-26 76 -27 88 -15 103 14 16 16 14 33 -24 13 -29 17 -60 15
-104z m682 94 c26 -50 4 -136 -51 -199 l-32 -36 8 54 c4 30 8 88 9 128 1 71 1
72 28 72 17 0 31 -8 38 -19z m-256 -7 c22 -8 20 -26 -5 -58 -17 -22 -28 -27
-58 -24 -29 2 -37 8 -39 26 -3 18 1 22 23 22 18 0 29 6 32 20 5 21 19 25 47
14z m-164 -23 c0 -5 2 -15 5 -23 6 -15 -61 -48 -96 -48 -32 0 -59 19 -59 40 0
21 15 27 25 10 9 -15 45 -12 45 4 0 13 15 18 68 25 6 0 12 -3 12 -8z"/>
<path d="M695 750 c-6 -10 -163 -90 -176 -90 -4 0 -20 -5 -34 -10 -24 -9 -25
-12 -14 -27 12 -14 32 -15 158 -9 80 4 147 9 149 11 2 2 1 9 -3 16 -6 9 -33
10 -101 6 -52 -4 -94 -5 -94 -3 0 7 65 43 90 49 33 9 73 44 65 57 -8 13 -32
13 -40 0z"/>
</g>
</svg>
